<?xml version="1.0" standalone="no"?>
<!DOCTYPE svg PUBLIC "-//W3C//DTD SVG 20010904//EN"
 "http://www.w3.org/TR/2001/REC-SVG-20010904/DTD/svg10.dtd">
<svg version="1.0" xmlns="http://www.w3.org/2000/svg"
 width="512.000000pt" height="512.000000pt" viewBox="0 0 512.000000 512.000000"
 preserveAspectRatio="xMidYMid meet">
<metadata>
Created by potrace 1.14, written by Peter Selinger 2001-2017
</metadata>
<g transform="translate(0.000000,512.000000) scale(0.100000,-0.100000)"
fill="#000000" stroke="none">
<path d="M752 4561 c-60 -21 -117 -63 -150 -111 -55 -81 -52 12 -50 -1905 l3
-1770 21 -46 c31 -66 86 -123 147 -150 l52 -24 1790 0 1790 0 46 21 c66 31
123 86 150 147 l24 52 0 1790 0 1790 -21 46 c-31 66 -86 123 -147 150 l-52 24
-1775 2 c-1699 2 -1777 2 -1828 -16z m3284 -388 c63 -34 97 -66 129 -125 l30
-53 0 -1430 0 -1430 -22 -41 c-34 -63 -66 -97 -125 -129 l-53 -30 -1430 0
-1430 0 -53 30 c-59 32 -91 66 -125 129 l-22 41 -3 1408 c-1 906 1 1422 8
1446 15 56 64 127 109 157 86 56 -1 53 1531 51 l1415 -2 41 -22z"/>
<path d="M1495 3721 c-48 -22 -69 -44 -90 -94 -12 -30 -15 -86 -15 -309 0
-244 2 -277 19 -313 21 -46 54 -79 94 -94 18 -7 135 -11 311 -11 276 0 284 1
326 23 30 16 51 37 67 67 22 42 23 50 23 326 0 175 -4 293 -11 311 -15 42 -68
92 -109 103 -19 5 -156 10 -305 10 -241 0 -274 -2 -310 -19z m403 -403 l-3
-83 -82 -3 -83 -3 0 86 0 85 85 0 86 0 -3 -82z"/>
<path d="M2519 3731 c-44 -14 -74 -39 -97 -80 -20 -34 -22 -54 -22 -168 0
-119 2 -133 23 -164 72 -107 212 -107 284 0 21 31 23 45 23 164 0 115 -2 134
-22 169 -12 21 -36 48 -53 58 -37 23 -100 32 -136 21z"/>
<path d="M3005 3721 c-46 -21 -79 -54 -94 -94 -7 -18 -11 -135 -11 -311 0
-276 1 -284 23 -326 16 -30 37 -51 67 -67 42 -22 50 -23 326 -23 175 0 293 4
311 11 42 15 92 68 103 109 5 19 10 157 10 305 0 241 -2 274 -19 310 -22 48
-44 69 -94 90 -30 12 -86 15 -309 15 -244 0 -277 -2 -313 -19z m395 -406 l0
-86 -82 3 -83 3 -3 83 -3 82 86 0 85 0 0 -85z"/>
<path d="M2519 3061 c-44 -14 -74 -39 -98 -81 -21 -38 -22 -47 -19 -259 3
-241 4 -245 72 -295 26 -20 42 -21 335 -24 306 -3 307 -3 341 20 108 73 109
213 1 285 -32 22 -43 23 -227 23 l-194 0 0 106 c0 91 -3 112 -22 146 -12 21
-36 48 -53 58 -37 23 -100 32 -136 21z"/>
<path d="M1475 2706 c-54 -33 -79 -78 -79 -141 0 -64 28 -112 83 -143 40 -22
45 -23 343 -20 299 3 303 3 336 26 40 29 72 89 72 137 0 48 -32 108 -72 137
-33 23 -36 23 -338 26 l-305 2 -40 -24z"/>
<path d="M3488 2710 c-111 -59 -111 -225 0 -288 112 -62 246 16 246 143 0 126
-133 204 -246 145z"/>
<path d="M1495 2216 c-41 -19 -83 -66 -95 -107 -6 -18 -10 -154 -10 -302 0
-218 3 -274 15 -304 21 -50 42 -72 90 -94 36 -17 69 -19 315 -19 246 0 279 2
315 19 46 21 79 54 94 94 7 18 11 135 11 311 0 276 -1 284 -23 326 -16 30 -37
51 -67 67 -42 22 -50 23 -329 23 -217 -1 -293 -4 -316 -14z m403 -403 l3 -83
-86 0 -85 0 0 85 0 86 83 -3 82 -3 3 -82z"/>
<path d="M2488 2210 c-20 -11 -47 -34 -60 -52 -23 -33 -23 -37 -26 -336 -3
-298 -2 -303 20 -343 61 -109 219 -113 283 -7 18 29 21 56 25 228 l5 194 30 6
c110 23 166 141 113 239 -39 74 -85 91 -232 91 -100 -1 -127 -4 -158 -20z"/>
<path d="M3158 2210 c-54 -29 -81 -73 -86 -139 -4 -65 19 -109 77 -148 33 -22
42 -23 255 -23 203 0 224 2 254 20 89 55 103 178 29 259 -42 46 -72 51 -289
51 -181 -1 -207 -3 -240 -20z"/>
<path d="M3012 1717 c-18 -5 -48 -27 -67 -48 -60 -66 -59 -152 2 -219 20 -23
50 -44 71 -50 21 -5 155 -10 307 -10 297 0 326 5 373 65 70 89 40 209 -62 256
-37 17 -69 18 -316 18 -162 -1 -288 -5 -308 -12z"/>
</g>
</svg>
