<svg width="328" height="328" viewBox="0 0 328 328" fill="none" xmlns="http://www.w3.org/2000/svg">
<rect width="328" height="328" rx="29" fill="#F59E0B"/>
<g filter="url(#filter0_d_8_18)">
<rect x="35" y="35" width="258" height="258" rx="29" fill="#1E293B"/>
</g>
<g filter="url(#filter1_d_8_18)">
<rect x="59" y="59" width="210" height="210" rx="29" fill="white"/>
</g>
<path fill-rule="evenodd" clip-rule="evenodd" d="M88.75 99.4999C88.75 96.6488 89.8826 93.9145 91.8986 91.8985C93.9146 89.8825 96.6489 88.7499 99.5 88.7499H131.75C134.601 88.7499 137.335 89.8825 139.351 91.8985C141.367 93.9145 142.5 96.6488 142.5 99.4999V131.75C142.5 134.601 141.367 137.335 139.351 139.351C137.335 141.367 134.601 142.5 131.75 142.5H99.5C96.6489 142.5 93.9146 141.367 91.8986 139.351C89.8826 137.335 88.75 134.601 88.75 131.75V99.4999ZM110.25 121V110.25H121V121H110.25ZM88.75 196.25C88.75 193.399 89.8826 190.664 91.8986 188.648C93.9146 186.632 96.6489 185.5 99.5 185.5H131.75C134.601 185.5 137.335 186.632 139.351 188.648C141.367 190.664 142.5 193.399 142.5 196.25V228.5C142.5 231.351 141.367 234.085 139.351 236.101C137.335 238.117 134.601 239.25 131.75 239.25H99.5C96.6489 239.25 93.9146 238.117 91.8986 236.101C89.8826 234.085 88.75 231.351 88.75 228.5V196.25ZM110.25 217.75V207H121V217.75H110.25ZM196.25 88.7499C193.399 88.7499 190.665 89.8825 188.649 91.8985C186.633 93.9145 185.5 96.6488 185.5 99.4999V131.75C185.5 134.601 186.633 137.335 188.649 139.351C190.665 141.367 193.399 142.5 196.25 142.5H228.5C231.351 142.5 234.085 141.367 236.101 139.351C238.117 137.335 239.25 134.601 239.25 131.75V99.4999C239.25 96.6488 238.117 93.9145 236.101 91.8985C234.085 89.8825 231.351 88.7499 228.5 88.7499H196.25ZM207 110.25V121H217.75V110.25H207Z" fill="#0F172A"/>
<path d="M174.75 99.4999C174.75 96.6488 173.617 93.9145 171.601 91.8985C169.585 89.8825 166.851 88.7499 164 88.7499C161.149 88.7499 158.415 89.8825 156.399 91.8985C154.383 93.9145 153.25 96.6488 153.25 99.4999V110.25C153.25 113.101 154.383 115.835 156.399 117.851C158.415 119.867 161.149 121 164 121C166.851 121 169.585 119.867 171.601 117.851C173.617 115.835 174.75 113.101 174.75 110.25V99.4999ZM164 131.75C166.851 131.75 169.585 132.882 171.601 134.898C173.617 136.914 174.75 139.649 174.75 142.5V153.25H196.25C199.101 153.25 201.835 154.382 203.851 156.398C205.867 158.414 207 161.149 207 164C207 166.851 205.867 169.585 203.851 171.601C201.835 173.617 199.101 174.75 196.25 174.75H164C161.149 174.75 158.415 173.617 156.399 171.601C154.383 169.585 153.25 166.851 153.25 164V142.5C153.25 139.649 154.383 136.914 156.399 134.898C158.415 132.882 161.149 131.75 164 131.75ZM228.5 153.25C225.649 153.25 222.915 154.382 220.899 156.398C218.883 158.414 217.75 161.149 217.75 164C217.75 166.851 218.883 169.585 220.899 171.601C222.915 173.617 225.649 174.75 228.5 174.75C231.351 174.75 234.085 173.617 236.101 171.601C238.117 169.585 239.25 166.851 239.25 164C239.25 161.149 238.117 158.414 236.101 156.398C234.085 154.382 231.351 153.25 228.5 153.25ZM153.25 196.25C153.25 193.399 154.383 190.664 156.399 188.648C158.415 186.632 161.149 185.5 164 185.5H174.75C177.601 185.5 180.335 186.632 182.351 188.648C184.367 190.664 185.5 193.399 185.5 196.25C185.5 199.101 184.367 201.835 182.351 203.851C180.335 205.867 177.601 207 174.75 207V228.5C174.75 231.351 173.617 234.085 171.601 236.101C169.585 238.117 166.851 239.25 164 239.25C161.149 239.25 158.415 238.117 156.399 236.101C154.383 234.085 153.25 231.351 153.25 228.5V196.25ZM131.75 174.75C134.601 174.75 137.335 173.617 139.351 171.601C141.367 169.585 142.5 166.851 142.5 164C142.5 161.149 141.367 158.414 139.351 156.398C137.335 154.382 134.601 153.25 131.75 153.25H99.5C96.6489 153.25 93.9146 154.382 91.8986 156.398C89.8826 158.414 88.75 161.149 88.75 164C88.75 166.851 89.8826 169.585 91.8986 171.601C93.9146 173.617 96.6489 174.75 99.5 174.75H131.75ZM239.25 196.25C239.25 199.101 238.117 201.835 236.101 203.851C234.085 205.867 231.351 207 228.5 207H207C204.149 207 201.415 205.867 199.399 203.851C197.383 201.835 196.25 199.101 196.25 196.25C196.25 193.399 197.383 190.664 199.399 188.648C201.415 186.632 204.149 185.5 207 185.5H228.5C231.351 185.5 234.085 186.632 236.101 188.648C238.117 190.664 239.25 193.399 239.25 196.25ZM228.5 239.25C231.351 239.25 234.085 238.117 236.101 236.101C238.117 234.085 239.25 231.351 239.25 228.5C239.25 225.649 238.117 222.915 236.101 220.898C234.085 218.882 231.351 217.75 228.5 217.75H196.25C193.399 217.75 190.665 218.882 188.649 220.898C186.633 222.915 185.5 225.649 185.5 228.5C185.5 231.351 186.633 234.085 188.649 236.101C190.665 238.117 193.399 239.25 196.25 239.25H228.5Z" fill="#0F172A"/>
<defs>
<filter id="filter0_d_8_18" x="29" y="29" width="270" height="270" filterUnits="userSpaceOnUse" color-interpolation-filters="sRGB">
<feFlood flood-opacity="0" result="BackgroundImageFix"/>
<feColorMatrix in="SourceAlpha" type="matrix" values="0 0 0 0 0 0 0 0 0 0 0 0 0 0 0 0 0 0 127 0" result="hardAlpha"/>
<feOffset/>
<feGaussianBlur stdDeviation="3"/>
<feComposite in2="hardAlpha" operator="out"/>
<feColorMatrix type="matrix" values="0 0 0 0 0 0 0 0 0 0 0 0 0 0 0 0 0 0 0.25 0"/>
<feBlend mode="normal" in2="BackgroundImageFix" result="effect1_dropShadow_8_18"/>
<feBlend mode="normal" in="SourceGraphic" in2="effect1_dropShadow_8_18" result="shape"/>
</filter>
<filter id="filter1_d_8_18" x="55" y="59" width="218" height="218" filterUnits="userSpaceOnUse" color-interpolation-filters="sRGB">
<feFlood flood-opacity="0" result="BackgroundImageFix"/>
<feColorMatrix in="SourceAlpha" type="matrix" values="0 0 0 0 0 0 0 0 0 0 0 0 0 0 0 0 0 0 127 0" result="hardAlpha"/>
<feOffset dy="4"/>
<feGaussianBlur stdDeviation="2"/>
<feComposite in2="hardAlpha" operator="out"/>
<feColorMatrix type="matrix" values="0 0 0 0 0 0 0 0 0 0 0 0 0 0 0 0 0 0 0.25 0"/>
<feBlend mode="normal" in2="BackgroundImageFix" result="effect1_dropShadow_8_18"/>
<feBlend mode="normal" in="SourceGraphic" in2="effect1_dropShadow_8_18" result="shape"/>
</filter>
</defs>
</svg>
